<?xml version="1.0" encoding="UTF-8" standalone="no"?>
<svg
   xmlns:dc="http://purl.org/dc/elements/1.1/"
   xmlns:cc="http://creativecommons.org/ns#"
   xmlns:rdf="http://www.w3.org/1999/02/22-rdf-syntax-ns#"
   xmlns:svg="http://www.w3.org/2000/svg"
   xmlns="http://www.w3.org/2000/svg"
   xmlns:sodipodi="http://sodipodi.sourceforge.net/DTD/sodipodi-0.dtd"
   xmlns:inkscape="http://www.inkscape.org/namespaces/inkscape"
   width="18.101263"
   height="10.714664"
   id="svg2"
   version="1.1"
   inkscape:version="0.48.5 r10040"
   sodipodi:docname="icon-soundcloud.svg"
   inkscape:label="root image"
   style="enable-background:new">
  <metadata
     id="metadata9">
    <rdf:RDF>
      <cc:Work
         rdf:about="">
        <dc:format>image/svg+xml</dc:format>
        <dc:type
           rdf:resource="http://purl.org/dc/dcmitype/StillImage" />
      </cc:Work>
    </rdf:RDF>
  </metadata>
  <defs
     id="defs7">
    <inkscape:path-effect
       is_visible="true"
       id="path-effect3865"
       effect="spiro" />
    <inkscape:path-effect
       is_visible="true"
       id="path-effect3863"
       effect="spiro" />
    <inkscape:path-effect
       effect="spiro"
       id="path-effect3861"
       is_visible="true" />
    <inkscape:path-effect
       is_visible="true"
       id="path-effect3859"
       effect="spiro" />
    <inkscape:path-effect
       effect="spiro"
       id="path-effect3849"
       is_visible="true" />
    <inkscape:path-effect
       is_visible="true"
       id="path-effect3845"
       effect="spiro" />
    <inkscape:path-effect
       effect="spiro"
       id="path-effect3782"
       is_visible="true" />
    <inkscape:path-effect
       effect="spiro"
       id="path-effect2988"
       is_visible="true" />
    <inkscape:path-effect
       effect="spiro"
       id="path-effect2988-7"
       is_visible="true" />
  </defs>
  <sodipodi:namedview
     pagecolor="#ffffff"
     bordercolor="#666666"
     borderopacity="1"
     objecttolerance="10"
     gridtolerance="10"
     guidetolerance="10"
     inkscape:pageopacity="0"
     inkscape:pageshadow="2"
     inkscape:window-width="1302"
     inkscape:window-height="741"
     id="namedview5"
     showgrid="false"
     fit-margin-top="1"
     fit-margin-left="1"
     fit-margin-right="1"
     fit-margin-bottom="1"
     inkscape:zoom="8.6491086"
     inkscape:cx="18.245936"
     inkscape:cy="18.059567"
     inkscape:window-x="0"
     inkscape:window-y="25"
     inkscape:window-maximized="0"
     inkscape:current-layer="layer1" />
  <g
     inkscape:groupmode="layer"
     id="layer1"
     inkscape:label="vector image"
     transform="translate(-3.4025081,-13.417837)">
    <path
       style="fill:#f7620e;fill-opacity:1;stroke:#000000;stroke-width:0;stroke-linecap:butt;stroke-linejoin:miter;stroke-miterlimit:4;stroke-opacity:1;stroke-dasharray:none"
       d="m 11.974055,19.038155 c -0.0072,-1.345954 0.0063,-2.692019 0.04037,-4.03756 0.372964,-0.286895 0.824641,-0.470389 1.292018,-0.524883 0.762391,-0.08889 1.524788,0.160617 2.220659,0.484508 0.440434,0.204998 0.872122,0.445363 1.219585,0.784886 0.347463,0.339522 0.606241,0.789484 0.637693,1.274269 0.01318,0.203112 -0.01324,0.407066 -0.0033,0.610365 0.0049,0.101649 0.01913,0.203438 0.05118,0.300027 0.03205,0.09659 0.08255,0.188065 0.154037,0.260501 0.103084,0.104456 0.245392,0.164424 0.390466,0.186581 0.145073,0.02216 0.293481,0.0088 0.437898,-0.01731 0.288833,-0.0522 0.575107,-0.155501 0.867412,-0.128902 0.207934,0.01892 0.407542,0.104668 0.572406,0.232786 0.164864,0.128118 0.295652,0.297454 0.389533,0.48395 0.187762,0.372993 0.226921,0.804094 0.208954,1.221293 -0.04475,1.039052 -0.433162,2.060437 -1.090141,2.866669 l -7.307984,-0.04037 c -0.04676,-1.318432 -0.07368,-2.637569 -0.08075,-3.956811"
       id="path2986"
       inkscape:path-effect="#path-effect2988-7"
       inkscape:original-d="m 11.974055,19.038155 0.04037,-4.03756 c 0,0 0.653355,-0.467255 1.292018,-0.524883 0.638664,-0.05763 1.493297,0.06237 2.220659,0.484508 0.727364,0.422137 1.568739,1.46535 1.857278,2.059155 0.288538,0.593806 -0.162089,0.856828 0.201877,1.170893 0.363967,0.314065 1.124771,-0.290791 1.695776,0.04037 0.571004,0.331166 1.106308,1.029247 1.170893,1.938029 0.06459,0.908783 -1.090141,2.866669 -1.090141,2.866669 l -7.307984,-0.04037 z"
       inkscape:connector-curvature="0"
       sodipodi:nodetypes="cczzzzzzccc" />
    <path
       style="fill:#f7620e;fill-opacity:1;stroke:#000000;stroke-width:0;stroke-linecap:butt;stroke-linejoin:miter;stroke-miterlimit:4;stroke-opacity:1;stroke-dasharray:none"
       d="m 10.88494,15.637523 0.04037,7.34836 C 10.496595,22.958321 10.085062,22.729691 9.8351689,22.380249 9.6357951,22.101451 9.5406351,21.759131 9.5083336,21.417905 9.4760321,21.07668 9.5029614,20.732977 9.5274258,20.3911 c 0.042056,-0.587705 0.076813,-1.176684 0.065493,-1.765783 -0.012805,-0.666372 -0.080753,-1.357495 0.1615033,-1.978404 0.120568,-0.309019 0.3161739,-0.588455 0.5652589,-0.807512 l 0.565259,-0.201878"
       id="path3780"
       inkscape:path-effect="#path-effect3782"
       inkscape:original-d="m 10.88494,15.637523 0.04037,7.34836 c 0,0 -0.830396,-0.273908 -1.0901411,-0.605634 C 9.4331438,21.866811 9.4323578,21.046414 9.5274258,20.3911 c 0.095067,-0.655314 0.0034,-0.984041 0.065493,-1.765783 0.05332,-0.67081 0.06634,-1.31224 0.1615033,-1.978404 0.047587,-0.333082 0.5652589,-0.807512 0.5652589,-0.807512 z"
       inkscape:connector-curvature="0"
       sodipodi:nodetypes="ccsssscc" />
    <path
       sodipodi:nodetypes="ccsssscc"
       inkscape:connector-curvature="0"
       inkscape:original-d="m 8.4283371,16.243157 0.040373,6.742853 c 0,0 -1.1130252,-0.210963 -1.3727705,-0.515354 -0.4020281,-0.47113 -0.3624378,-1.109455 -0.2673703,-1.71077 0.095067,-0.601316 -0.077392,-1.436174 -0.015257,-1.855881 0.090481,-0.61118 -0.4442455,-1.902676 0.3230055,-1.673843 0.296415,0.08841 0.7267611,-0.801761 0.7267611,-0.801761 z"
       inkscape:path-effect="#path-effect3845"
       id="path3843"
       d="m 8.4283371,16.243157 0.040373,6.742853 c -0.2519794,0.06673 -0.5246075,0.05305 -0.7686425,-0.03857 -0.244035,-0.09161 -0.4583118,-0.260725 -0.604128,-0.476789 -0.1642988,-0.243451 -0.2391818,-0.537748 -0.2659432,-0.830231 -0.026761,-0.292483 -0.00828,-0.586914 -0.00143,-0.880539 0.014444,-0.618524 -0.022798,-1.237234 -0.015257,-1.855881 0.00699,-0.573614 0.057587,-1.165282 0.3230055,-1.673843 0.1687202,-0.32328 0.4215511,-0.602203 0.7267611,-0.801761 l 0.5652582,-0.185244"
       style="fill:#f7620e;fill-opacity:1;stroke:#000000;stroke-width:0;stroke-linecap:butt;stroke-linejoin:miter;stroke-miterlimit:4;stroke-opacity:1;stroke-dasharray:none" />
    <path
       style="fill:#f7620e;fill-opacity:1;stroke:#000000;stroke-width:0;stroke-linecap:butt;stroke-linejoin:miter;stroke-miterlimit:4;stroke-opacity:1;stroke-dasharray:none"
       d="m 5.7528231,18.665693 0.040374,4.323304 C 5.6042888,23.087126 5.3756679,23.10582 5.1733274,23.039685 4.9709869,22.973549 4.7975409,22.823438 4.7030556,22.632681 4.6188573,22.462693 4.5974492,22.268486 4.5957925,22.078795 c -0.00166,-0.189691 0.015066,-0.379688 0.00139,-0.568893 -0.026371,-0.364968 -0.1652949,-0.721607 -0.1363839,-1.086382 0.029167,-0.36801 0.2249123,-0.69849 0.4037569,-1.02144 0.1125632,-0.203262 0.2202723,-0.409212 0.3230046,-0.617615 l 0.5652582,-0.118772"
       id="path3847"
       inkscape:path-effect="#path-effect3849"
       inkscape:original-d="m 5.7528231,18.665693 0.040374,4.323304 c 0,0 -0.8303963,-0.16115 -1.0901415,-0.356316 C 4.3010272,22.330607 4.5021198,21.895446 4.5971873,21.509902 4.6922548,21.124357 4.3986686,20.883447 4.4608034,20.42352 4.514124,20.028858 4.769394,19.794008 4.8645603,19.40208 4.9121447,19.206116 5.1875649,18.784465 5.1875649,18.784465 z"
       inkscape:connector-curvature="0"
       sodipodi:nodetypes="ccsssscc" />
    <path
       sodipodi:nodetypes="cczzzzzzccc"
       inkscape:connector-curvature="0"
       inkscape:original-d="m 11.974055,19.038155 0.04037,-4.03756 c 0,0 0.653355,-0.467255 1.292018,-0.524883 0.638664,-0.05763 1.493297,0.06237 2.220659,0.484508 0.727364,0.422137 1.568739,1.46535 1.857278,2.059155 0.288538,0.593806 -0.162089,0.856828 0.201877,1.170893 0.363967,0.314065 1.124771,-0.290791 1.695776,0.04037 0.571004,0.331166 1.106308,1.029247 1.170893,1.938029 0.06459,0.908783 -1.090141,2.866669 -1.090141,2.866669 l -7.307984,-0.04037 z"
       inkscape:path-effect="#path-effect3865"
       id="path3851"
       d="m 11.974055,19.038155 c -0.0072,-1.345954 0.0063,-2.692019 0.04037,-4.03756 0.372964,-0.286895 0.824641,-0.470389 1.292018,-0.524883 0.762391,-0.08889 1.524788,0.160617 2.220659,0.484508 0.440434,0.204998 0.872122,0.445363 1.219585,0.784886 0.347463,0.339522 0.606241,0.789484 0.637693,1.274269 0.01318,0.203112 -0.01324,0.407066 -0.0033,0.610365 0.0049,0.101649 0.01913,0.203438 0.05118,0.300027 0.03205,0.09659 0.08255,0.188065 0.154037,0.260501 0.103084,0.104456 0.245392,0.164424 0.390466,0.186581 0.145073,0.02216 0.293481,0.0088 0.437898,-0.01731 0.288833,-0.0522 0.575107,-0.155501 0.867412,-0.128902 0.207934,0.01892 0.407542,0.104668 0.572406,0.232786 0.164864,0.128118 0.295652,0.297454 0.389533,0.48395 0.187762,0.372993 0.226921,0.804094 0.208954,1.221293 -0.04475,1.039052 -0.433162,2.060437 -1.090141,2.866669 l -7.307984,-0.04037 c -0.04676,-1.318432 -0.07368,-2.637569 -0.08075,-3.956811"
       style="fill:#f7620e;fill-opacity:1;stroke:#000000;stroke-width:0;stroke-linecap:butt;stroke-linejoin:miter;stroke-miterlimit:4;stroke-opacity:1;stroke-dasharray:none" />
    <path
       sodipodi:nodetypes="ccsssscc"
       inkscape:connector-curvature="0"
       inkscape:original-d="m 10.88494,15.637523 0.04037,7.34836 c 0,0 -0.830396,-0.273908 -1.0901411,-0.605634 C 9.4331438,21.866811 9.4323578,21.046414 9.5274258,20.3911 c 0.095067,-0.655314 0.0034,-0.984041 0.065493,-1.765783 0.05332,-0.67081 0.06634,-1.31224 0.1615033,-1.978404 0.047587,-0.333082 0.5652589,-0.807512 0.5652589,-0.807512 z"
       inkscape:path-effect="#path-effect3863"
       id="path3853"
       d="m 10.88494,15.637523 0.04037,7.34836 C 10.496595,22.958321 10.085062,22.729691 9.8351689,22.380249 9.6357951,22.101451 9.5406351,21.759131 9.5083336,21.417905 9.4760321,21.07668 9.5029614,20.732977 9.5274258,20.3911 c 0.042056,-0.587705 0.076813,-1.176684 0.065493,-1.765783 -0.012805,-0.666372 -0.080753,-1.357495 0.1615033,-1.978404 0.120568,-0.309019 0.3161739,-0.588455 0.5652589,-0.807512 l 0.565259,-0.201878"
       style="fill:#f7620e;fill-opacity:1;stroke:#000000;stroke-width:0;stroke-linecap:butt;stroke-linejoin:miter;stroke-miterlimit:4;stroke-opacity:1;stroke-dasharray:none" />
    <path
       style="fill:#f7620e;fill-opacity:1;stroke:#000000;stroke-width:0;stroke-linecap:butt;stroke-linejoin:miter;stroke-miterlimit:4;stroke-opacity:1;stroke-dasharray:none"
       d="m 8.4283371,16.243157 0.040373,6.742853 c -0.2519794,0.06673 -0.5246075,0.05305 -0.7686425,-0.03857 -0.244035,-0.09161 -0.4583118,-0.260725 -0.604128,-0.476789 -0.1642988,-0.243451 -0.2391818,-0.537748 -0.2659432,-0.830231 -0.026761,-0.292483 -0.00828,-0.586914 -0.00143,-0.880539 0.014444,-0.618524 -0.022798,-1.237234 -0.015257,-1.855881 0.00699,-0.573614 0.057587,-1.165282 0.3230055,-1.673843 0.1687202,-0.32328 0.4215511,-0.602203 0.7267611,-0.801761 l 0.5652582,-0.185244"
       id="path3855"
       inkscape:path-effect="#path-effect3861"
       inkscape:original-d="m 8.4283371,16.243157 0.040373,6.742853 c 0,0 -1.1130252,-0.210963 -1.3727705,-0.515354 -0.4020281,-0.47113 -0.3624378,-1.109455 -0.2673703,-1.71077 0.095067,-0.601316 -0.077392,-1.436174 -0.015257,-1.855881 0.090481,-0.61118 -0.4442455,-1.902676 0.3230055,-1.673843 0.296415,0.08841 0.7267611,-0.801761 0.7267611,-0.801761 z"
       inkscape:connector-curvature="0"
       sodipodi:nodetypes="ccsssscc" />
    <path
       sodipodi:nodetypes="ccsssscc"
       inkscape:connector-curvature="0"
       inkscape:original-d="m 5.7528231,18.665693 0.040374,4.323304 c 0,0 -0.8303963,-0.16115 -1.0901415,-0.356316 C 4.3010272,22.330607 4.5021198,21.895446 4.5971873,21.509902 4.6922548,21.124357 4.3986686,20.883447 4.4608034,20.42352 4.514124,20.028858 4.769394,19.794008 4.8645603,19.40208 4.9121447,19.206116 5.1875649,18.784465 5.1875649,18.784465 z"
       inkscape:path-effect="#path-effect3859"
       id="path3857"
       d="m 5.7528231,18.665693 0.040374,4.323304 C 5.6042888,23.087126 5.3756679,23.10582 5.1733274,23.039685 4.9709869,22.973549 4.7975409,22.823438 4.7030556,22.632681 4.6188573,22.462693 4.5974492,22.268486 4.5957925,22.078795 c -0.00166,-0.189691 0.015066,-0.379688 0.00139,-0.568893 -0.026371,-0.364968 -0.1652949,-0.721607 -0.1363839,-1.086382 0.029167,-0.36801 0.2249123,-0.69849 0.4037569,-1.02144 0.1125632,-0.203262 0.2202723,-0.409212 0.3230046,-0.617615 l 0.5652582,-0.118772"
       style="fill:#f7620e;fill-opacity:1;stroke:#000000;stroke-width:0;stroke-linecap:butt;stroke-linejoin:miter;stroke-miterlimit:4;stroke-opacity:1;stroke-dasharray:none" />
  </g>
</svg>
